<?xml version="1.0" standalone="no"?>
<!DOCTYPE svg PUBLIC "-//W3C//DTD SVG 20010904//EN"
 "http://www.w3.org/TR/2001/REC-SVG-20010904/DTD/svg10.dtd">
<svg version="1.0" xmlns="http://www.w3.org/2000/svg"
 width="260.000000pt" height="260.000000pt" viewBox="0 0 260.000000 260.000000"
 preserveAspectRatio="xMidYMid meet">
<metadata>
Created by potrace 1.11, written by Peter Selinger 2001-2013
</metadata>
<g transform="translate(0.000000,260.000000) scale(0.100000,-0.100000)"
fill="#000000" stroke="none">
<path d="M445 2198 c-2 -7 -14 -71 -26 -143 -12 -71 -23 -137 -24 -146 -2 -9
-6 -32 -9 -50 -3 -19 -17 -101 -30 -182 -14 -82 -28 -169 -32 -195 -3 -26 -8
-50 -10 -53 -2 -4 -6 -28 -9 -55 -3 -27 -8 -57 -11 -67 -3 -11 -7 -29 -9 -40
-2 -22 -14 -94 -21 -132 -6 -30 -85 -495 -90 -530 -3 -16 -9 -54 -14 -84 -6
-30 -10 -74 -10 -98 l0 -43 230 0 229 0 5 32 c7 41 26 172 32 217 2 19 6 46 9
60 7 45 24 154 30 201 3 25 8 56 10 70 6 34 10 59 40 265 15 99 28 187 30 195
2 8 4 17 4 20 1 5 120 -283 145 -350 7 -19 72 -182 144 -361 73 -180 132 -332
132 -338 0 -7 31 -11 93 -11 l92 1 219 525 c121 289 223 527 228 530 4 3 8
-10 9 -28 0 -18 2 -42 4 -53 3 -11 7 -46 10 -78 4 -32 8 -68 10 -79 3 -11 7
-46 10 -77 4 -31 8 -67 10 -81 2 -14 7 -47 10 -75 3 -27 8 -63 10 -80 3 -26
11 -85 30 -240 3 -22 7 -53 9 -70 7 -43 19 -147 20 -170 1 -19 9 -20 239 -23
l239 -2 -6 57 c-7 64 -7 66 -35 243 -11 69 -22 150 -26 180 -4 30 -9 64 -11
75 -5 25 -50 322 -59 385 -6 50 -18 126 -21 145 -2 10 -6 37 -9 60 -3 22 -10
67 -15 100 -5 33 -12 78 -15 100 -3 22 -8 51 -10 65 -3 14 -7 43 -11 65 -3 22
-11 81 -19 130 -8 50 -17 110 -20 135 -3 25 -7 54 -9 65 -3 19 -12 20 -247 23
l-245 2 -159 -397 c-87 -219 -169 -421 -181 -448 -12 -28 -26 -63 -29 -78 -10
-38 -19 -27 -53 68 -30 81 -62 165 -197 520 -41 110 -87 230 -101 268 l-26 67
-239 0 c-183 0 -241 -3 -244 -12z"/>
</g>
</svg>
