<svg id="Layer_1" data-name="Layer 1" xmlns="http://www.w3.org/2000/svg" viewBox="0 0 780.3 333.42"><defs><style>.cls-1{fill:#04384c;}</style></defs><path class="cls-1" d="M0,205.56a67.21,67.21,0,0,1,5.28-27.09A62,62,0,0,1,19.7,157.72a63.7,63.7,0,0,1,21.55-13.28,74.52,74.52,0,0,1,26.47-4.66A79.22,79.22,0,0,1,95,144.44,63.3,63.3,0,0,1,116.44,157L90.76,188A22.75,22.75,0,0,0,82,181a28.4,28.4,0,0,0-11.78-2.37,26.07,26.07,0,0,0-9.85,1.84,23.16,23.16,0,0,0-8,5.37A24.9,24.9,0,0,0,47,194.39,30.81,30.81,0,0,0,45,205.56a28.22,28.22,0,0,0,2,11,26.58,26.58,0,0,0,5.45,8.36,23.27,23.27,0,0,0,8,5.36,25.56,25.56,0,0,0,9.67,1.85,24.46,24.46,0,0,0,12.4-3,26.28,26.28,0,0,0,8.18-7l25.68,30.78a61.94,61.94,0,0,1-20.76,13.46,73.63,73.63,0,0,1-28,5,73.26,73.26,0,0,1-26.47-4.75A64.1,64.1,0,0,1,19.7,253.14,63.28,63.28,0,0,1,5.28,232.38,66.11,66.11,0,0,1,0,205.56Zm312.47-8.72,2.08,75.8H272.49V138.48h59l24.29,72.19h1l21-72.19h60.9V272.64h-44L396,197.22,394.9,197l-25,75.61H338.05l-24.63-75.8Zm337.46,75.8V138.48h50a144.17,144.17,0,0,1,30.41,3.12A70.69,70.69,0,0,1,756,152.4a55.58,55.58,0,0,1,17.72,20.38q6.63,12.69,6.63,32,0,17.63-6.34,30.51a59.85,59.85,0,0,1-17,21.13,71.85,71.85,0,0,1-24.45,12.22,103.74,103.74,0,0,1-28.8,4Zm43.4-95.88v57h8.33q15.93,0,24.45-6.89t8.53-22.57q0-13-8.53-20.3t-22.74-7.27Zm-569.76-3.47a70.46,70.46,0,1,0,133.61,25.87V53.28A2.59,2.59,0,0,0,252,53L240.64,158.55a72.25,72.25,0,0,0-7.49-7.56L252.27,35.16a2.59,2.59,0,0,0-5.06-1.1l-29,107a71.57,71.57,0,0,0-8.06-3.41L253.35,3.39a2.59,2.59,0,0,0-4.86-1.8L193,134a70.78,70.78,0,0,0-9.34-.17L233.24,29.56a2.59,2.59,0,0,0-4.56-2.44l-62,109c-2.64,1-10,4.32-12.42,5.61l30.95-55.61a2.59,2.59,0,0,0-4.44-2.66l-57.24,89.27m93.71,28.1a30.49,30.49,0,1,1-33.65-27A30.49,30.49,0,0,1,217.22,200.82ZM23,332.63c-.08-.84-.15-1.76-.19-2.78s-.07-1.85-.07-2.52h-.13a10.27,10.27,0,0,1-4.31,4.41A12.59,12.59,0,0,1,12,333.42q-5.89,0-8.84-3.5a14,14,0,0,1-2.94-9.27v-19h4.5v17.15a22.33,22.33,0,0,0,.4,4.44,9.24,9.24,0,0,0,1.36,3.41,6.42,6.42,0,0,0,2.58,2.22,9.23,9.23,0,0,0,4.07.79,8.66,8.66,0,0,0,3.48-.73,8.5,8.5,0,0,0,3-2.22,11.12,11.12,0,0,0,2.12-3.77,16.44,16.44,0,0,0,.79-5.4V301.64h4.5v24.17c0,.84,0,1.92.07,3.24s.11,2.52.2,3.58Zm19.87-31,7.48,25.16h.13l8.34-25.16h4.37L71.7,326.8h.13l7.41-25.16H84l-9.8,31h-4.9L61,307.54H60.9l-8.14,25.09h-4.9l-9.8-31Zm94.27,7.09a8.64,8.64,0,0,0-3.27-3,9.74,9.74,0,0,0-4.67-1.16,12.24,12.24,0,0,0-4.9,1,11.16,11.16,0,0,0-3.74,2.65,11.62,11.62,0,0,0-2.38,4,14.23,14.23,0,0,0-.83,4.94,13.93,13.93,0,0,0,.83,4.9,11.94,11.94,0,0,0,2.35,3.94,10.64,10.64,0,0,0,3.7,2.64,11.91,11.91,0,0,0,4.9,1,9.84,9.84,0,0,0,8.41-4l3.38,2.51a14.75,14.75,0,0,1-4.87,3.91,15.18,15.18,0,0,1-6.92,1.45,18.09,18.09,0,0,1-6.82-1.22,15,15,0,0,1-5.19-3.41,15.54,15.54,0,0,1-3.35-5.16,18.29,18.29,0,0,1,0-13,15.34,15.34,0,0,1,3.35-5.16,14.89,14.89,0,0,1,5.19-3.41,18.09,18.09,0,0,1,6.82-1.23,16.08,16.08,0,0,1,6.33,1.36,12.33,12.33,0,0,1,5.19,4Zm44.89,8.41a16.85,16.85,0,0,1-1.22,6.49,15.69,15.69,0,0,1-3.41,5.16,15.49,15.49,0,0,1-5.23,3.41,17.7,17.7,0,0,1-6.69,1.22,17.52,17.52,0,0,1-6.62-1.22,15.49,15.49,0,0,1-5.23-3.41,15.69,15.69,0,0,1-3.41-5.16,17.87,17.87,0,0,1,0-13,15.3,15.3,0,0,1,8.64-8.57,17.52,17.52,0,0,1,6.62-1.23,17.7,17.7,0,0,1,6.69,1.23,15.3,15.3,0,0,1,8.64,8.57A16.85,16.85,0,0,1,182.06,317.14Zm-4.76,0a14.23,14.23,0,0,0-.83-4.87,11.94,11.94,0,0,0-2.35-4,11.05,11.05,0,0,0-3.71-2.68,11.72,11.72,0,0,0-4.9-1,11.47,11.47,0,0,0-4.86,1A11.13,11.13,0,0,0,157,308.3a11.94,11.94,0,0,0-2.35,4,14.67,14.67,0,0,0,0,9.73,12,12,0,0,0,2.35,4,10.75,10.75,0,0,0,3.68,2.64,11.62,11.62,0,0,0,4.86,1,11.87,11.87,0,0,0,4.9-1,10.68,10.68,0,0,0,3.71-2.64,12,12,0,0,0,2.35-4A14.18,14.18,0,0,0,177.3,317.14Zm26.25-14.6a11.41,11.41,0,0,1,6.12-1.69,13.48,13.48,0,0,1,2.62.27,8.25,8.25,0,0,1,2.65,1,9.73,9.73,0,0,1,2.38,2,11.35,11.35,0,0,1,1.89,3.24,11.67,11.67,0,0,1,4.33-4.86,12.18,12.18,0,0,1,6.52-1.69q5.9,0,8.84,3.51a13.91,13.91,0,0,1,2.95,9.27v19h-4.5V315.48a15,15,0,0,0-1.82-7.88c-1.22-2-3.28-3-6.19-3a8,8,0,0,0-4.14,1,7.91,7.91,0,0,0-2.72,2.61,11.71,11.71,0,0,0-1.49,3.68,19.11,19.11,0,0,0-.46,4.23v16.49H216V314.56a23.6,23.6,0,0,0-.33-4.11,8.59,8.59,0,0,0-1.16-3.14,5.35,5.35,0,0,0-2.29-2,8.63,8.63,0,0,0-3.7-.7,7.87,7.87,0,0,0-3.21.73,8.44,8.44,0,0,0-2.92,2.22,11.41,11.41,0,0,0-2.08,3.77,16.51,16.51,0,0,0-.8,5.4v15.89H195V308.46c0-.83,0-1.92-.07-3.24s-.11-2.52-.19-3.58h4.3c.09.84.15,1.77.2,2.79s.06,1.85.06,2.51h.14A10.49,10.49,0,0,1,203.55,302.54Zm61.77,0a11.41,11.41,0,0,1,6.12-1.69,13.48,13.48,0,0,1,2.62.27,8.16,8.16,0,0,1,2.65,1,9.73,9.73,0,0,1,2.38,2A11.35,11.35,0,0,1,281,307.4a11.67,11.67,0,0,1,4.33-4.86,12.21,12.21,0,0,1,6.53-1.69q5.88,0,8.84,3.51a14,14,0,0,1,2.94,9.27v19h-4.5V315.48a15,15,0,0,0-1.82-7.88c-1.22-2-3.28-3-6.19-3a8.06,8.06,0,0,0-4.14,1,7.79,7.79,0,0,0-2.71,2.61,11.25,11.25,0,0,0-1.49,3.68,19.11,19.11,0,0,0-.47,4.23v16.49h-4.5V314.56a23.6,23.6,0,0,0-.33-4.11,8.59,8.59,0,0,0-1.16-3.14,5.33,5.33,0,0,0-2.28-2,8.67,8.67,0,0,0-3.71-.7,7.87,7.87,0,0,0-3.21.73,8.63,8.63,0,0,0-2.92,2.22,11.41,11.41,0,0,0-2.08,3.77,16.51,16.51,0,0,0-.8,5.4v15.89h-4.5V308.46c0-.83,0-1.92-.06-3.24s-.11-2.52-.2-3.58h4.3c.09.84.15,1.77.2,2.79s.07,1.85.07,2.51h.13A10.49,10.49,0,0,1,265.32,302.54Zm75.78,30.09c-.09-.84-.16-1.76-.2-2.78s-.07-1.85-.07-2.52h-.13a10.27,10.27,0,0,1-4.31,4.41,12.59,12.59,0,0,1-6.29,1.68q-5.88,0-8.83-3.5a13.91,13.91,0,0,1-2.95-9.27v-19h4.5v17.15a22.33,22.33,0,0,0,.4,4.44,9.24,9.24,0,0,0,1.36,3.41,6.49,6.49,0,0,0,2.58,2.22,9.23,9.23,0,0,0,4.07.79,8.66,8.66,0,0,0,3.48-.73,8.41,8.41,0,0,0,3-2.22,11.12,11.12,0,0,0,2.12-3.77,16.44,16.44,0,0,0,.79-5.4V301.64h4.5v24.17c0,.84,0,1.92.07,3.24s.11,2.52.2,3.58Zm23.3-31c.09.84.15,1.77.2,2.79s.06,1.85.06,2.51h.14a10.11,10.11,0,0,1,4.3-4.4,12.53,12.53,0,0,1,6.29-1.69q5.89,0,8.84,3.51a14,14,0,0,1,2.95,9.27v19h-4.51V315.48a23,23,0,0,0-.39-4.43,9.35,9.35,0,0,0-1.36-3.41,6.49,6.49,0,0,0-2.58-2.22,9.27,9.27,0,0,0-4.08-.8,8.75,8.75,0,0,0-3.47.73,8.57,8.57,0,0,0-3,2.22,11,11,0,0,0-2.12,3.77,16.51,16.51,0,0,0-.8,5.4v15.89h-4.5V308.46c0-.83,0-1.92-.07-3.24s-.11-2.52-.19-3.58Zm43.23-11.91a2.93,2.93,0,0,1-1,2.28,3.1,3.1,0,0,1-4.37,0,3.13,3.13,0,0,1,0-4.57,3.13,3.13,0,0,1,4.37,0A3,3,0,0,1,407.63,289.73Zm-.92,42.9H402.2v-31h4.51Zm37.6-23.9a8.6,8.6,0,0,0-3.28-3,9.7,9.7,0,0,0-4.66-1.16,12.2,12.2,0,0,0-4.9,1,11.06,11.06,0,0,0-3.74,2.65,11.64,11.64,0,0,0-2.39,4,14.47,14.47,0,0,0-.83,4.94,14.16,14.16,0,0,0,.83,4.9,12.11,12.11,0,0,0,2.35,3.94,10.68,10.68,0,0,0,3.71,2.64,11.91,11.91,0,0,0,4.9,1,9.88,9.88,0,0,0,8.41-4l3.38,2.51a14.75,14.75,0,0,1-4.87,3.91,15.21,15.21,0,0,1-6.92,1.45,18.05,18.05,0,0,1-6.82-1.22,15.17,15.17,0,0,1-5.2-3.41,15.51,15.51,0,0,1-3.34-5.16,18.29,18.29,0,0,1,0-13,15.31,15.31,0,0,1,3.34-5.16,15,15,0,0,1,5.2-3.41,18.05,18.05,0,0,1,6.82-1.23,16.07,16.07,0,0,1,6.32,1.36,12.36,12.36,0,0,1,5.2,4Zm33.63,3.85q0-4-2.11-6a8.72,8.72,0,0,0-6.16-2,13.34,13.34,0,0,0-5.17,1,12.13,12.13,0,0,0-4,2.65l-2.52-3a14.92,14.92,0,0,1,5.06-3.18,19,19,0,0,1,7.12-1.26,15.18,15.18,0,0,1,4.7.7,11,11,0,0,1,3.84,2.08,9.57,9.57,0,0,1,2.59,3.51,12.45,12.45,0,0,1,.92,5v13.57c0,1.19.05,2.43.13,3.71a25.51,25.51,0,0,0,.4,3.24h-4c-.13-.75-.24-1.57-.33-2.45a25.33,25.33,0,0,1-.13-2.58h-.13a13.26,13.26,0,0,1-4.8,4.47,15.3,15.3,0,0,1-10.13.86,10.53,10.53,0,0,1-3.45-1.63,9.37,9.37,0,0,1-2.58-2.92,8.77,8.77,0,0,1-1-4.39,8.34,8.34,0,0,1,1.82-5.68,11,11,0,0,1,4.86-3.12,28.47,28.47,0,0,1,7-1.33c2.62-.2,5.35-.3,8.17-.3Zm-1.32,4.56c-1.85,0-3.72.07-5.59.23a23.64,23.64,0,0,0-5.1.93,9.44,9.44,0,0,0-3.74,2,4.51,4.51,0,0,0-1.46,3.5,5.64,5.64,0,0,0,.63,2.79,5.18,5.18,0,0,0,1.69,1.82,7.24,7.24,0,0,0,2.35,1,11.49,11.49,0,0,0,2.61.3,10.35,10.35,0,0,0,4.24-.83,8.9,8.9,0,0,0,3.11-2.25,9.88,9.88,0,0,0,1.92-3.28,11.53,11.53,0,0,0,.66-3.9v-2.32Zm33.77-11.72h-8.74v18.07a10.32,10.32,0,0,0,.33,2.85,4,4,0,0,0,1,1.75,3.22,3.22,0,0,0,1.49.87,7.27,7.27,0,0,0,1.85.23,7.62,7.62,0,0,0,2-.27,9.4,9.4,0,0,0,2-.73l.2,3.91a13.91,13.91,0,0,1-2.49.7,16.39,16.39,0,0,1-2.81.23,11.5,11.5,0,0,1-2.65-.33,6.61,6.61,0,0,1-2.58-1.26,6.77,6.77,0,0,1-1.95-2.52,9.67,9.67,0,0,1-.77-4.17V305.42h-6.42v-3.78h6.42v-8.73h4.51v8.73h8.74Zm15.82-15.69a2.93,2.93,0,0,1-1,2.28,3.1,3.1,0,0,1-4.37,0,3.11,3.11,0,0,1,0-4.57,3.13,3.13,0,0,1,4.37,0A3,3,0,0,1,526.21,289.73Zm-.93,42.9h-4.5v-31h4.5Zm43.5-16.42v1a9,9,0,0,1-.07,1.13H543a12.11,12.11,0,0,0,.92,4.37,11,11,0,0,0,2.39,3.57,11.38,11.38,0,0,0,3.57,2.42,10.94,10.94,0,0,0,4.44.89,11.06,11.06,0,0,0,6.06-1.62,12.08,12.08,0,0,0,3.87-3.74l3.38,2.65a16.79,16.79,0,0,1-6.13,5,17,17,0,0,1-7.18,1.52A16.39,16.39,0,0,1,548,332.2a15,15,0,0,1-5.07-3.41,16.33,16.33,0,0,1-3.34-5.16,16.85,16.85,0,0,1-1.22-6.49,17.22,17.22,0,0,1,1.19-6.49,15.39,15.39,0,0,1,3.31-5.16,15,15,0,0,1,5-3.41,15.37,15.37,0,0,1,6.16-1.23,15.71,15.71,0,0,1,6.42,1.23,13.16,13.16,0,0,1,4.64,3.31,14.31,14.31,0,0,1,2.81,4.86A18.16,18.16,0,0,1,568.78,316.21Zm-4.57-1.46a11.18,11.18,0,0,0-2.81-7.25q-2.62-2.88-7.45-2.88a10.45,10.45,0,0,0-4.17.83,11,11,0,0,0-3.38,2.25,11.3,11.3,0,0,0-2.32,3.25,10.53,10.53,0,0,0-1,3.8Zm30.26,17.88h-5l-12.64-31h5L592,327.86h.14l10.13-26.22h4.83Zm22.84-27.41c0-1.32-.11-2.52-.2-3.58h4.31c.08.84.15,1.77.19,2.79s.07,1.85.07,2.51h.13a10.66,10.66,0,0,1,4-4.4,10.79,10.79,0,0,1,6-1.69,14.65,14.65,0,0,1,1.56.07,8.19,8.19,0,0,1,1.42.26l-.59,4.31a8.51,8.51,0,0,0-1.33-.27,12.69,12.69,0,0,0-1.85-.13,9.19,9.19,0,0,0-3.44.66,7.25,7.25,0,0,0-2.88,2.08,11,11,0,0,0-2,3.63,16.39,16.39,0,0,0-.76,5.32v15.85h-4.5V308.46C617.38,307.63,617.35,306.54,617.31,305.22ZM650,289.73a2.93,2.93,0,0,1-1,2.28,3.1,3.1,0,0,1-4.37,0,3.13,3.13,0,0,1,0-4.57,3.13,3.13,0,0,1,4.37,0A3,3,0,0,1,650,289.73Zm-.92,42.9h-4.5v-31h4.5Zm43.5-16.42v1c0,.36,0,.73-.07,1.13H666.83a11.91,11.91,0,0,0,.93,4.37,11,11,0,0,0,2.38,3.57,11.54,11.54,0,0,0,3.58,2.42,10.89,10.89,0,0,0,4.43.89,11.06,11.06,0,0,0,6.06-1.62,12,12,0,0,0,3.87-3.74l3.38,2.65a16.68,16.68,0,0,1-6.12,5,17.08,17.08,0,0,1-7.19,1.52,16.46,16.46,0,0,1-6.39-1.22,15,15,0,0,1-5.06-3.41,16.16,16.16,0,0,1-3.34-5.16,16.86,16.86,0,0,1-1.23-6.49,17.42,17.42,0,0,1,1.19-6.49,15.71,15.71,0,0,1,3.31-5.16,15.15,15.15,0,0,1,5-3.41,15.37,15.37,0,0,1,6.16-1.23,15.78,15.78,0,0,1,6.42,1.23,13.12,13.12,0,0,1,4.63,3.31,14.17,14.17,0,0,1,2.82,4.86A18.16,18.16,0,0,1,692.59,316.21ZM688,314.75a11.13,11.13,0,0,0-2.82-7.25q-2.61-2.88-7.44-2.88a10.38,10.38,0,0,0-4.17.83,10.86,10.86,0,0,0-3.38,2.25,11.11,11.11,0,0,0-2.32,3.25,10.53,10.53,0,0,0-1,3.8Zm21.58-13.11c.09.84.16,1.77.2,2.79s.07,1.85.07,2.51H710a10.17,10.17,0,0,1,4.3-4.4,12.53,12.53,0,0,1,6.29-1.69q5.89,0,8.84,3.51a14,14,0,0,1,3,9.27v19h-4.5V315.48a23,23,0,0,0-.4-4.43,9.35,9.35,0,0,0-1.36-3.41,6.49,6.49,0,0,0-2.58-2.22,9.22,9.22,0,0,0-4.07-.8,8.8,8.8,0,0,0-3.48.73,8.66,8.66,0,0,0-3,2.22,11,11,0,0,0-2.12,3.77,16.51,16.51,0,0,0-.8,5.4v15.89h-4.5V308.46c0-.83,0-1.92-.06-3.24s-.11-2.52-.2-3.58Zm63.23,25.76a12.66,12.66,0,0,1-5.16,4.5,15,15,0,0,1-6.56,1.52,16.79,16.79,0,0,1-6.59-1.25,15,15,0,0,1-5-3.45,15.38,15.38,0,0,1-3.24-5.16,18.35,18.35,0,0,1,0-12.84,15.53,15.53,0,0,1,3.24-5.17,15,15,0,0,1,5-3.44,16.62,16.62,0,0,1,6.59-1.26,14.74,14.74,0,0,1,6.56,1.56,12.76,12.76,0,0,1,5.16,4.6H773V282.58h4.51v50.05H773V327.4Zm-23-10.26a14.65,14.65,0,0,0,.79,4.86,11.69,11.69,0,0,0,2.29,4,10.26,10.26,0,0,0,3.67,2.64,12.08,12.08,0,0,0,5,1,11.74,11.74,0,0,0,8.54-3.57,11.9,11.9,0,0,0,2.48-3.94,14.13,14.13,0,0,0,0-9.87,12.35,12.35,0,0,0-2.48-4,11.52,11.52,0,0,0-3.78-2.65,12.57,12.57,0,0,0-9.73,0,10.6,10.6,0,0,0-3.67,2.68,11.65,11.65,0,0,0-2.29,4A14.71,14.71,0,0,0,749.86,317.14ZM516.44,138.48h0c-30.62,0-55.44,20.33-55.44,45.4l-1.27,88.76h35.52V245.56h41.11v27.08h35.52V183.88C571.88,158.81,547.06,138.48,516.44,138.48ZM536.36,202v8.92H495.25l.47-18.18c0-9.19,9.1-16.64,20.32-16.64s20.32,7.45,20.32,16.64Zm52.21-24.19h45.48v94.87H588.57Zm0-40.28h45.48V166H588.57Z"/></svg>